<?xml version="1.0" encoding="utf-8"?>
<!-- Generator: Adobe Illustrator 16.0.0, SVG Export Plug-In . SVG Version: 6.00 Build 0)  -->
<!DOCTYPE svg PUBLIC "-//W3C//DTD SVG 1.1//EN" "http://www.w3.org/Graphics/SVG/1.1/DTD/svg11.dtd">
<svg version="1.1" xmlns="http://www.w3.org/2000/svg" xmlns:xlink="http://www.w3.org/1999/xlink" x="0px" y="0px" width="576px"
	 height="468px" viewBox="0 0 576 468" enable-background="new 0 0 576 468" xml:space="preserve">
<g id="Layer_2">
	<rect x="-25.5" y="-22.5" fill="#FFFFFF" stroke="#000000" stroke-miterlimit="10" width="658" height="510"/>
</g>
<g id="Layer_1">
	<g>
		<g>
			<g id="Layer_1_1_">
				<g>
					<defs>
						
							<rect id="SVGID_1_" x="56.458" y="-11.235" transform="matrix(0.9397 0.342 -0.342 0.9397 98.8168 -89.4864)" width="493.438" height="493.438"/>
					</defs>
					<clipPath id="SVGID_2_">
						<use xlink:href="#SVGID_1_"  overflow="visible"/>
					</clipPath>
					<g clip-path="url(#SVGID_2_)">
						<g>
							<defs>
								
									<rect id="SVGID_3_" x="56.458" y="-11.235" transform="matrix(0.9397 0.342 -0.342 0.9397 98.8168 -89.4864)" width="493.438" height="493.438"/>
							</defs>
							<defs>
								
									<rect id="SVGID_4_" x="56.458" y="-11.235" transform="matrix(0.9397 0.342 -0.342 0.9397 98.8168 -89.4864)" width="493.438" height="493.438"/>
							</defs>
							<clipPath id="SVGID_5_">
								<use xlink:href="#SVGID_3_"  overflow="visible"/>
							</clipPath>
							<clipPath id="SVGID_6_" clip-path="url(#SVGID_5_)">
								<use xlink:href="#SVGID_4_"  overflow="visible"/>
							</clipPath>
							<path clip-path="url(#SVGID_6_)" d="M468.012,344.945c4.07-8.625-1.352-64.342-1.352-64.342s-8.999-53.914,3.467-66.992
								c13.61-14.279,54.49-38.975,67.893-53.45c10.502-11.343,33.199-47.361-3.872-55.901
								c-37.072-8.54-135.534,13.968-144.151,11.934c-9.187-2.171-56.75-51.468-80.939-55.88
								c-24.259-4.426-90.191,1.299-99.561,2.843c0,0-25.406-10.348-36.323-6.064c-10.916,4.283-15.163,22.002-15.163,22.002
								s-15.427,13.649-10.48,24.256c4.945,10.608,9.727,9.383,8.525,11.36c-5.483,9.013-5.574,18.337-5.574,18.337
								s4.82-8.704,13.924-12.546c0,0,4.263,2.167,2.649,4.817c-2.74,4.506-2.787,12.196-2.787,12.196s7.339-11.09,14.806-8.922
								c8.996,2.61,52.311,31.7,58.264,77.35s-42.639,64.617-54.286,70.511c-20.242,10.247-27.662-5.665-27.662-5.665
								s0.617,7.379,5.079,11.756c4.46,4.378-9.771,16.261,7.505,24.749c17.275,8.489,54.838,5.098,57.84,14.998
								c3.001,9.898,7.323,56.839,8.244,69.602C237.973,446.161,451.165,380.646,468.012,344.945"/>
							<path clip-path="url(#SVGID_6_)" fill="none" stroke="#000000" d="M468.012,344.945c4.07-8.625-1.352-64.342-1.352-64.342
								s-8.999-53.914,3.467-66.992c13.61-14.279,54.49-38.975,67.893-53.45c10.502-11.343,33.199-47.361-3.872-55.901
								c-37.072-8.54-135.534,13.968-144.151,11.934c-9.187-2.171-56.75-51.468-80.939-55.88
								c-24.259-4.426-90.191,1.299-99.561,2.843c0,0-25.406-10.348-36.323-6.064c-10.916,4.283-15.163,22.002-15.163,22.002
								s-15.427,13.649-10.48,24.256c4.945,10.608,9.727,9.383,8.525,11.36c-5.483,9.013-5.574,18.337-5.574,18.337
								s4.82-8.704,13.924-12.546c0,0,4.263,2.167,2.649,4.817c-2.74,4.506-2.787,12.196-2.787,12.196s7.339-11.09,14.806-8.922
								c8.996,2.61,52.311,31.7,58.264,77.35s-42.639,64.617-54.286,70.511c-20.242,10.247-27.662-5.665-27.662-5.665
								s0.617,7.379,5.079,11.756c4.46,4.378-9.771,16.261,7.505,24.749c17.275,8.489,54.838,5.098,57.84,14.998
								c3.001,9.898,7.323,56.839,8.244,69.602C237.973,446.161,451.165,380.646,468.012,344.945z"/>
						</g>
					</g>
				</g>
			</g>
			<g id="Layer_3">
				<polygon stroke="#000000" points="193.559,211.179 51.244,110.315 54.093,131.869 				"/>
				<g>
					<polyline stroke="#000000" points="18.297,212.531 33.544,197.032 192.656,217.625 					"/>
					<polyline stroke="#000000" points="46.569,175.55 51.407,169.615 51.792,161.085 191.666,213.739 					"/>
				</g>
			</g>
			<g id="Layer_4">
			</g>
		</g>
	</g>
</g>
</svg>
