<?xml version="1.0" encoding="utf-8"?>
<!-- Generator: Adobe Illustrator 16.0.0, SVG Export Plug-In . SVG Version: 6.00 Build 0)  -->
<!DOCTYPE svg PUBLIC "-//W3C//DTD SVG 1.1//EN" "http://www.w3.org/Graphics/SVG/1.1/DTD/svg11.dtd">
<svg version="1.1" xmlns="http://www.w3.org/2000/svg" xmlns:xlink="http://www.w3.org/1999/xlink" x="0px" y="0px" width="150px"
	 height="150px" viewBox="213 159 150 150" enable-background="new 213 159 150 150" xml:space="preserve">
<g id="Layer_2">
	<rect x="198.5" y="153.655" fill="#FFFFFF" stroke="#000000" stroke-miterlimit="10" width="179.563" height="163.784"/>
</g>
<g id="Layer_1">
	<g>
		<g>
			<g id="Layer_1_2_">
				<g>
					<defs>
						
							<rect id="SVGID_1_" x="230.631" y="176.631" transform="matrix(0.9397 0.342 -0.342 0.9397 99.4917 -85.8547)" width="125.177" height="125.177"/>
					</defs>
					<clipPath id="SVGID_2_">
						<use xlink:href="#SVGID_1_"  overflow="visible"/>
					</clipPath>
					<g clip-path="url(#SVGID_2_)">
						<g>
							<defs>
								
									<rect id="SVGID_3_" x="230.631" y="176.631" transform="matrix(0.9397 0.342 -0.342 0.9397 99.4917 -85.8547)" width="125.177" height="125.177"/>
							</defs>
							<defs>
								
									<rect id="SVGID_4_" x="230.631" y="176.631" transform="matrix(0.9397 0.342 -0.342 0.9397 99.4917 -85.8547)" width="125.177" height="125.177"/>
							</defs>
							<clipPath id="SVGID_5_">
								<use xlink:href="#SVGID_3_"  overflow="visible"/>
							</clipPath>
							<clipPath id="SVGID_6_" clip-path="url(#SVGID_5_)">
								<use xlink:href="#SVGID_4_"  overflow="visible"/>
							</clipPath>
							<path clip-path="url(#SVGID_6_)" d="M335.035,266.987c1.031-2.188-0.344-16.322-0.344-16.322s-2.283-13.677,0.881-16.993
								c3.453-3.624,13.822-9.889,17.223-13.561c2.664-2.877,8.422-12.014-0.982-14.182c-9.404-2.166-34.383,3.543-36.57,3.029
								c-2.33-0.551-14.396-13.057-20.531-14.178c-6.154-1.122-22.88,0.331-25.258,0.722c0,0-6.445-2.624-9.214-1.538
								c-2.769,1.086-3.846,5.581-3.846,5.581s-3.914,3.463-2.659,6.154c1.254,2.691,2.467,2.381,2.163,2.882
								c-1.391,2.287-1.415,4.652-1.415,4.652s1.222-2.209,3.532-3.183c0,0,1.082,0.55,0.672,1.222
								c-0.694,1.143-0.707,3.093-0.707,3.093s1.862-2.812,3.757-2.263c2.281,0.662,13.27,8.042,14.78,19.623
								c1.51,11.58-10.817,16.391-13.771,17.887c-5.135,2.599-7.018-1.436-7.018-1.436s0.156,1.869,1.288,2.981
								c1.131,1.109-2.478,4.125,1.903,6.277c4.384,2.153,13.912,1.294,14.673,3.806c0.762,2.511,1.858,14.419,2.092,17.655
								C276.678,292.666,330.762,276.045,335.035,266.987"/>
							<path clip-path="url(#SVGID_6_)" fill="none" stroke="#000000" d="M335.035,266.987c1.031-2.188-0.344-16.322-0.344-16.322
								s-2.283-13.677,0.881-16.993c3.453-3.624,13.822-9.889,17.223-13.561c2.664-2.877,8.422-12.014-0.982-14.182
								c-9.404-2.166-34.383,3.543-36.57,3.029c-2.33-0.551-14.396-13.057-20.531-14.178c-6.154-1.122-22.88,0.331-25.258,0.722
								c0,0-6.445-2.624-9.214-1.538c-2.769,1.086-3.846,5.581-3.846,5.581s-3.914,3.463-2.659,6.154
								c1.254,2.691,2.467,2.381,2.163,2.882c-1.391,2.287-1.415,4.652-1.415,4.652s1.222-2.209,3.532-3.183
								c0,0,1.082,0.55,0.672,1.222c-0.694,1.143-0.707,3.093-0.707,3.093s1.862-2.812,3.757-2.263
								c2.281,0.662,13.27,8.042,14.78,19.623c1.51,11.58-10.817,16.391-13.771,17.887c-5.135,2.599-7.018-1.436-7.018-1.436
								s0.156,1.869,1.288,2.981c1.131,1.109-2.478,4.125,1.903,6.277c4.384,2.153,13.912,1.294,14.673,3.806
								c0.762,2.511,1.858,14.419,2.092,17.655C276.678,292.666,330.762,276.045,335.035,266.987z"/>
						</g>
					</g>
				</g>
			</g>
			<g id="Layer_3_1_">
				<polygon stroke="#000000" points="265.411,233.053 229.309,207.466 230.031,212.934 				"/>
				<g>
					<polyline stroke="#000000" points="220.95,233.396 224.818,229.465 265.182,234.689 					"/>
					<polyline stroke="#000000" points="228.122,224.015 229.35,222.509 229.446,220.344 264.931,233.703 					"/>
				</g>
			</g>
			<g id="Layer_4_1_">
			</g>
		</g>
	</g>
</g>
</svg>
