<?xml version="1.0" encoding="utf-8"?>
<!-- Generator: Adobe Illustrator 16.0.0, SVG Export Plug-In . SVG Version: 6.00 Build 0)  -->
<!DOCTYPE svg PUBLIC "-//W3C//DTD SVG 1.1//EN" "http://www.w3.org/Graphics/SVG/1.1/DTD/svg11.dtd">
<svg version="1.1" id="Layer_1" xmlns="http://www.w3.org/2000/svg" xmlns:xlink="http://www.w3.org/1999/xlink" x="0px" y="0px"
	 width="150px" height="150px" viewBox="141 141 150 150" enable-background="new 141 141 150 150" xml:space="preserve">
<g id="Layer_5" display="none">
	
		<image display="inline" overflow="visible" enable-background="new    " width="97" height="100" xlink:href="EC1C7CF0D5BA02DD.png"  transform="matrix(1.4857 0 0 1.4857 143.916 141.6875)">
	</image>
</g>
<g id="Layer_3">
	<rect x="141" y="141" width="150" height="150"/>
</g>
<g id="Layer_2">
	<path fill="#FFFFFF" stroke="#FFFFFF" d="M169.714,262.677c-1.865,3.26,3.385,8.719,4.78,11.082
		c1.882,3.189,9.353,5.492,13.637,5.785c3.721,0.254,10.883-2.803,14.26-4.388c0.74-0.348,0.575-2.483,0.918-4.541
		c0.348-2.08,1.201-4.081,1.201-4.081s0.085,2.04,0.7,3.313c0.619,1.282,1.77,1.797,2.504,1.484
		c5.095-2.166,15.871-10.84,19.42-13.946c1.897-1.659,5.169-5.582,7.24-7.021c10.177-7.065,36.393-12.607,45.239-21.28
		c1.752-1.716,5.295-3.478,4.388-9.26c-0.907-5.782-9.18-5.776-12.331-4.78c-3.664,1.157-10.257,5.271-13.557,7.239
		c-3.411,2.035-15.138,4.827-15.138,4.827s2.175-4.09-1.929-9.699c-4.103-5.61-10.138-3.903-10.138-3.903s5.838-3.255,1.189-11.143
		s-9.526-4.872-9.526-4.872s7.548-6.149,3.729-13.164c-3.817-7.014-12.745-7.597-17.331-6.8c-4.52,0.784-10.986,8.394-14.306,11.581
		c-2.315,2.222-10.119,6.597-11.581,5.531c-1.462-1.067,1.87-12.5,1.536-16.673c-0.299-3.726-2.23-10.927-4.215-13.995
		c-2.878-4.451-12.505-12.547-17.978-11.235c-5.473,1.312-5.517,4.021-5.138,6.143c0.378,2.122,4.265,6.081,5.254,8.337
		c1.28,2.918,0.707,9.667-0.173,12.724c-1.262,4.386-5.469,12.465-6.928,16.892c-3.118,9.459-9.638,29.244-7.897,39.051
		c0.934,5.26,7.068,14.807,11.188,18.208c1.951,1.611,5.574,3.755,9.168,3.676c2.289-0.051,7.132-1.5,9.05-2.749
		c1.443-0.941,5.657-3.718,6.303-3.879c0.646-0.162-4.174,5.776-5.818,6.949C175.389,259.554,171.017,260.399,169.714,262.677z"/>
</g>
<g id="Layer_4">
	<path stroke="#020202" d="M206.75,210.204c1.41-1.06,3.765-1.178,5.057-2.262l6.76-7.626c0,0,4.886,1.491,6.141,2.585
		c0.956,0.834,2.586,4.364,2.586,4.364s-1.334-4.108-2.263-5.171c-1.081-1.239-4.244-2.591-5.817-3.071
		c-1.25-0.381-1.88-0.201-4.927,1.742l-1.861-3.358c-0.485-0.527-2.748-0.808-2.748-0.808s1.889,1.295,2.263,1.939
		c0.434,0.747,1.131,2.909,1.131,2.909l-1.616,0.808c0,0-1.214-2.96-1.938-3.717c-1.066-1.11-5.333-3.071-5.333-3.071
		s3.76,2.6,4.525,3.879c0.557,0.93,0.932,4.233,0.932,4.233c-2.034,1.471-9.68,7.566-11.921,8.696
		c-1.552,0.782-5.01,2.747-6.949-0.162c-1.939-2.909-1.131-5.333-0.162-7.272c0.97-1.939,14.061-14.222,14.061-14.222
		s-0.798-0.784-0.808-1.131c-0.066-2.342,5.01-7.919,5.01-7.919s-6.626,6.303-6.949,8.889c-0.324,2.586-10.828,11.798-10.828,11.798
		s-2.371-0.593-3.194-1.084c-0.749-0.446-2.947-2.472-2.947-2.472l2.586,4.202c0,0-2.392,0.239-3.232-0.485
		c-0.737-0.635-3.071-4.848-3.071-4.848s1.093,3.683,1.616,4.848c0.94,2.096,3.717,6.464,3.717,8.404s-4.363,9.858-4.848,14.06
		c-0.484,4.202,4.373,3.985,4.848,5.818c0.411,1.582-1.398,3.79-1.454,5.423c-0.051,1.499,0.969,7.021,0.969,7.021
		s0.752-4.064,1.179-5.333c0.243-0.723,0.862-2.7,1.616-2.586c5.329,0.83,0.988,9.236,0.988,9.236l3.167-2.197
		c0,0-0.14,4.528,0.646,5.243c0.509,0.464,2.748,0.162,2.748,0.162s-1.448-1.138-0.09-3.07s5.98,3.394,5.98,3.394
		s-0.138-1.858,0.67-2.748c0.808-0.889,4.098-1.605,5.398-0.646c0.641,0.472,1.293,2.908,1.293,2.908s1.079-1.713,1.616-2.101
		c1.692-1.221,4.033-2.133,6.159,1.293c2.126,3.425,6.447,6.626,6.447,6.626s-2.81-4.438-1.665-5.447
		c1.146-1.008,6.513-1.179,6.513-1.179s-7.836-1.328-7.595-3.394c0.2-1.716,6.787-0.251,6.787-0.251s-2.539-2.592-3.439-2.913
		c-1.189-0.425-4.402,0.397-4.803-0.116c-1.131-1.455,13.737-4.153,13.737-4.8c0-0.376-6.929,0.402-14.064,2.527
		c-5.15,1.534-9.797,3.945-13.248,4.535c-1.953,0.334-6.464,0.969-7.757-1.616c-1.293-2.586,0.405-4.916,1.616-6.279
		c2.152-2.421,7.934-4.844,12.97-7.928c0,0,2.281,0.661,2.868,1.165c0.895,0.766,2.424,4.039,2.424,4.039s-0.556-3.277-1.131-4.201
		c-0.455-0.729-2.586-2.263-2.586-2.263s13.576-8.08,13.415-8.565c-0.162-0.485-10.731,6.212-18.835,10.161
		c0,0-2.883-2.258-3.629-3.212c-0.591-0.754-1.777-3.394-1.777-3.394s0.711,3.386,1.292,4.363c0.497,0.836,2.748,2.747,2.748,2.747
		l-8.081,2.586c-1.778,0.304-5.495,0.646-6.949-1.938c-1.455-2.587,0.169-5.123,1.131-6.627l8.646-7.515
		c0,0,3.743,2.514,4.606,3.718c0.99,1.381,2.344,6.384,2.344,6.384s-1.181-5.771-2.101-7.435c-0.67-1.212-3.959-3.394-3.959-3.394
		L206.75,210.204z"/>
	<path fill="#020202" stroke="#020202" d="M171.214,187.871c-1.235,2.917-8.646,12.929-4.525,12.283
		c2.208-0.346,6.465,1.778,6.465,1.778s-4.795-0.791-5.657,0.162c-1.2,1.326-1.132,4.521-1.293,6.303
		c-0.63,6.961-2.095,21.4,0.324,27.958c0.478,1.297,2.688,3.176,3.394,4.363c0.672,1.131,1.616,5.01,1.616,5.01
		s-2.589-1.949-3.558-2.416c-0.495-0.238-2.099-0.654-2.099-0.654s0.007,5.135,0.642,6.691c0.56,1.374,3.722,4.621,3.722,4.621
		s-14.545,0.97-17.292-2.908c-2.748-3.879-1.667-9.801-0.485-12.768c0.737-1.849,3.206-5.077,3.878-6.95
		c1.188-3.301,0.684-10.622,1.94-13.897c0.495-1.291,3.394-4.364,3.394-4.364s-1.052-0.093-1.293-0.324
		c-1.842-1.761-1.063-7.7-0.485-10.182c1.873-8.027,12.984-26.609,9.212-33.938c-0.088-0.173-1.213,0.851-1.472,1.26
		c-0.42,0.664-1.113,2.942-1.113,2.942s0.757-3.424,1.169-4.515c0.154-0.406,0.631-1.244,0.608-1.626
		c-0.165-2.663-3.411-7.608-5.656-9.05c-1.592-1.022-7.273-2.101-7.273-2.101l-0.677-0.874c0,0,12.959-1.066,17.161,7.823
		l2.748,9.211c0,0,2.476-0.125,3.232,0.162c0.967,0.367,3.232,2.585,3.232,2.585s-2.707-1.575-3.717-1.778
		c-0.793-0.159-3.232,0.162-3.232,0.162L171.214,187.871z"/>
	<path fill="#020202" stroke="#020202" d="M234.728,243.304c0.028,0.731-0.323,2.909-0.323,2.909s2.297-2.355,3.232-2.909
		c2.321-1.373,9.625-4.04,9.625-4.04s-1.036-0.54-1.284-0.83c-0.456-0.532-0.099-2.563-0.099-2.563s1.521,1.28,2.108,1.577
		c0.525,0.267,2.256,0.686,2.256,0.686l7.499-3.185l0.904-3.766c0,0,1.238,2.018,1.778,2.586c0.455,0.481,1.131,0.646,1.131,0.646
		s0.036-1.731,0.201-2.053c1.529-2.988,9.444-2.174,12.081-3.441c1.842-0.886,4.363-2.909,3.394-7.435s-3.717-5.252-5.01-5.01
		c-1.293,0.242-12.282,6.464-12.282,6.464l0.809,3.718l-3.467-2.238l-9.067,3.991c0,0-0.043,0.671-0.076,1.294
		c-0.034,0.682-0.157,2.933-0.157,2.933s-1.308-1.295-1.616-1.939c-0.262-0.548-0.646-2.425-0.646-2.425l-1.688,1.617
		c0,0-2.072,0.211-2.998,0.646c-0.778,0.365-1.948,1.686-2.586,2.263c-1.128,1.021-4.441,3.457-4.687,3.879
		C233.534,237.064,234.662,241.632,234.728,243.304z"/>
</g>
</svg>
