<?xml version="1.0" encoding="utf-8"?>
<!-- Generator: Adobe Illustrator 16.0.0, SVG Export Plug-In . SVG Version: 6.00 Build 0)  -->
<!DOCTYPE svg PUBLIC "-//W3C//DTD SVG 1.1//EN" "http://www.w3.org/Graphics/SVG/1.1/DTD/svg11.dtd">
<svg version="1.1" id="Layer_1" xmlns="http://www.w3.org/2000/svg" xmlns:xlink="http://www.w3.org/1999/xlink" x="0px" y="0px"
	 width="150px" height="150px" viewBox="141 141 150 150" enable-background="new 141 141 150 150" xml:space="preserve">
<g id="Layer_1_1_" display="none">
	<g id="vJN9VC.tif" display="inline">
		
			<image overflow="visible" enable-background="new    " width="301" height="280" id="Layer_0_1_" xlink:href="5EDE4246C2854E92.png"  transform="matrix(1.1956 0 0 1.1953 35.6143 47.4473)">
		</image>
	</g>
</g>
<g id="Layer_3" display="none">
	
		<image display="inline" overflow="visible" enable-background="new    " width="309" height="163" xlink:href="5EDE4246C2854E96.jpeg"  transform="matrix(1.944 0.4505 -0.4877 2.1047 -196.624 -81.0469)">
	</image>
</g>
<g id="Layer_4">
	<rect x="141" y="140.944" width="150" height="150"/>
</g>
<g id="Layer_2">
	<path fill="#FFFFFF" d="M208.923,209.538c-3.206,0.438-6.995-8.16-7.14-9.471c-0.146-1.312,1.506-2.372,3.57-3.497
		c2.064-1.126,4.153-1.458,4.882-0.875C210.963,196.277,212.129,209.1,208.923,209.538z"/>
	<path fill="#FFFFFF" d="M210.235,193.217c0.583-0.874-0.729-11.949-1.458-12.532c-0.729-0.583-5.101,0-5.101,0l2.332-1.649
		l-3.352-1.411c0,0,4.809,1.021,5.537,0.583c0.729-0.437,0.166-14.426-0.874-19.089c-0.447-2.005-2.04-5.538-6.557-4.954
		c-4.518,0.583-5.288,4.789-5.392,6.994c-0.207,4.382,0.71,17.222,1.457,17.486c0.747,0.264,4.955,1.749,4.955,1.749l-2.915,2.139
		l0.437,0.239l2.478-0.047c0,0-2.623,1.02-3.206,1.895c-0.583,0.875,0.437,10.637,1.603,11.074c1.166,0.437,3.569-1.186,4.809-1.311
		c0.448-0.046,1.749,0.437,1.749,0.437l1.369,1.255h1.253l-0.583-1.11C208.777,194.966,209.651,194.092,210.235,193.217z"/>
	<path fill="#FFFFFF" d="M223.494,207.498c-2.769,0-4.226-10.912-3.935-12.086c0.292-1.174,3.935-1.466,3.935-1.466
		s-0.421-0.956-0.729-1.02c-0.534-0.111-1.457,0.874-2.186,0c-0.729-0.875,0-13.697,0.947-14.572c0.947-0.874,8.088,1.02,8.088,1.02
		s-2.187-3.472-3.644-4.286c-1.457-0.814-4.079-0.086-4.663-0.814c-0.583-0.729,1.417-12.167,2.186-16.175
		c0.399-2.075,1.312-5.245,6.121-5.828c4.809-0.583,6.153,5.376,6.119,7.869c-0.06,4.444-2.681,13.072-3.205,17.486
		c-0.457,3.842,0,14.863-1.021,15.446c-1.02,0.583-3.861-1.895-3.861-1.895l2.701,5.289c0,0-1.47,5.41-2.045,7.243
		C227.845,205.169,226.264,207.498,223.494,207.498z"/>
	<polygon fill="#FFFFFF" points="221.018,176.023 224.707,176.023 221.11,177.334 	"/>
	<path fill="#FFFFFF" d="M241.272,210.558c-2.478-0.875-0.292-13.955,0.582-14.482c0.874-0.527,2.939,0.703,3.789,1.222
		c0.791,0.484,2.623,2.623,2.623,2.623s-1.411-3.056-2.186-3.845c-0.832-0.847-3.3-2.421-3.3-2.421l-0.338-0.729
		c0,0,2.161,0.958,3.2,1.457c0.703,0.337,2.623,1.692,2.623,1.692s-1.068-2.56-1.749-3.149c-0.618-0.536-2.477-0.292-3.06-1.166
		c-0.584-0.875,3.789-13.406,4.809-13.989c1.02-0.583,3.775,0.931,4.954,1.458c0.821,0.367,3.061,1.894,3.061,1.894
		s-1.537-2.711-2.331-3.352c-0.554-0.446-2.623-1.093-2.623-1.093s1.541-0.107,2.04,0c0.391,0.084,1.457,0.656,1.457,0.656
		s-1.146-1.071-1.604-1.312c-0.738-0.389-2.623-0.266-3.205-0.935c-0.584-0.668,1.558-9.891,2.914-12.909
		c0.929-2.066,4.08-5.683,8.015-4.226c3.934,1.458,3.183,5.652,2.623,7.577c-0.878,3.022-3.352,11.366-4.371,11.803
		c-1.021,0.437-3.352-1.312-3.352-1.312l2.331,4.954l-6.995,16.903l-1.748-0.438c0,0,0.876,2.265,0.874,3.06
		c-0.007,2.439-2.09,7.169-3.644,9.05C245.79,210.611,243.749,211.432,241.272,210.558z"/>
	<path fill="#FFFFFF" d="M256.683,218.922c-2.914-4.809,5.538-15.155,6.12-15.592c0.583-0.437,2.478-0.437,2.478-0.437
		s-1.02-1.749-0.729-2.332c0.291-0.583,4.314-5.297,5.975-6.849c0.835-0.781,2.943-1.863,3.644-2.769
		c1.157-1.499,2.036-5.315,2.913-6.995c0.827-1.583,3.79-4.954,6.704-2.477c2.914,2.477-1.021,11.512-2.187,11.803
		s-2.009-0.435-2.623-0.729c-0.565-0.27-2.04-1.457-2.04-1.457s0.746,1.766,1.312,2.232c0.525,0.432,2.186,0.827,2.623,1.119
		c0.437,0.292-0.875,1.603-1.312,1.457c-0.437-0.146-0.863-0.867-1.312-1.066c-0.332-0.148-1.457-0.391-1.457-0.391
		s1.219,1.125,1.411,1.801c0.192,0.676-1.543,5.711-2.77,7.525c-0.968,1.432-5.198,4.08-6.072,3.934
		c-0.875-0.145-2.066-0.591-2.623-1.02c-0.393-0.302-1.166-1.603-1.166-1.603s0.146,1.919,0.438,2.478
		c0.285,0.548,1.603,1.02,1.748,1.749S259.598,223.73,256.683,218.922z"/>
	<path fill="#FFFFFF" d="M179.016,249.959c1.603,0.292,2.914-1.895,3.352-2.623c0.437-0.729,0.875-5.1-0.292-7.285
		c-1.166-2.187-10.246-8.536-13.406-11.658c-0.696-0.687,0.37,3.041-0.612,2.011c-0.606-0.636-2.494-6.121-3.054-6.47
		c-0.56-0.349-2.746-1.922-5.17-2.82c-3.032-1.123-11.208,0.16-12.339,4.563c-1.131,4.404,3.107,7.896,5.584,9.565
		c3.081,2.077,12.532,6.994,13.114,6.994c0.583,0,1.458-5.1,2.186-5.537s0.583,4.809,0.583,4.809l2.04-0.874
		c0,0,0,1.894,0.438,2.623C171.876,243.985,177.413,249.668,179.016,249.959z"/>
	<path fill="#FFFFFF" d="M213.489,229.221c2.061-2.242,6.94-7.231,9.534-7.239c3.191-0.009,8.884,9.431,8.884,9.431
		s10.527-3.969,12.572-1.077c0.612,0.865,1.567,4.47,1.567,4.47s4.733,0.441,6.266,0.822c1.66,0.412,6.412,2.384,6.412,2.384
		l-0.146-6.412c-0.393-1.578-2.96-3.915-3.644-5.391c-0.397-0.858-0.463-2.879-1.02-3.644c-1.723-2.362-8.16-5.391-10.054-5.975
		c-1.895-0.582-4.372,0.729-6.849,0c-2.478-0.728-8.452-5.537-11.366-5.682c-2.915-0.146-10.929,3.497-11.803,3.013
		c-0.875-0.484,1.749-3.013,1.749-3.013s-2.915-0.146-8.16,0.874s-8.271,7.667-7.775,10.451c0.425,2.388,3.065,6.911,5.246,7.77
		C206.907,230.791,213.489,229.221,213.489,229.221z"/>
	<path fill="#FFFFFF" d="M213.254,231.257c0,0,3.14,7.563,3.794,9.959c1.229,4.509,2.623,18.507,2.623,18.507
		s8.769-9.933,12.094-12.823c2.966-2.578,12.822-9.478,12.822-9.478s5.824-0.791,7.724-0.391c1.762,0.37,6.266,2.77,6.266,2.77
		l-1.457,5.351c-1.017,4.075-4.542,11.761-6.266,15.591c-1.671,3.715-4.229,11.879-7.285,14.572
		c-2.23,1.964-8.249,3.986-11.221,3.934c-1.799-0.032-5.127-1.754-6.703-2.622c-2.259-1.246-7.868-6.267-8.306-6.121
		c-0.438,0.146,1.895,4.227,1.895,4.227l-7.577-0.292c0,0,2.968-2.613,3.497-3.788c0.45-1.002,1.166-4.663,0.437-4.372
		c-0.729,0.292-2.763,4.136-4.08,5.101c-2.206,1.614-2.04,4.371-10.2,3.934s-10.783-9.763-10.783-9.763l-4.663-10.783
		c0,0-0.318-6.219,0.583-8.015c0.799-1.593,4.813-2.977,5.391-4.663c0.542-1.581-1.853-4.976-1.312-6.557
		c0.468-1.368,2.979-4.182,4.372-4.57c2.065-0.575,6.308,1.5,8.452,1.458C205.844,232.371,213.254,231.257,213.254,231.257z"/>
</g>
</svg>
