<?xml version="1.0" encoding="utf-8"?>
<!-- Generator: Adobe Illustrator 13.0.2, SVG Export Plug-In . SVG Version: 6.00 Build 14948)  -->
<!DOCTYPE svg PUBLIC "-//W3C//DTD SVG 1.1//EN" "http://www.w3.org/Graphics/SVG/1.1/DTD/svg11.dtd">
<svg version="1.1" id="Layer_1" xmlns="http://www.w3.org/2000/svg" xmlns:xlink="http://www.w3.org/1999/xlink" x="0px" y="0px"
	 width="432px" height="216px" viewBox="0 0 432 216" enable-background="new 0 0 432 216" xml:space="preserve">
<path fill="#6ABC45" d="M18.319,85.157c5.312,11.764,5.784,24.458,7.222,37.084c0.782,6.815,9.128,7.203,9.128,0
	c0-22.843,0-45.682,0-68.524c-3.574,0.486-5.355,0.971-8.934,1.452c8.359,22.561,1.456,34.583,18.936,54.103
	c2.343,2.616,4.223,1.839,5.89-1.106c7.634-13.532,8.126-26.586,8.017-41.697c-3.395,0.917-4.996,1.834-8.386,2.752
	c9.192,18.244,7.895,39.91,19.122,57.369c3.792,5.896,11.457,0.433,7.642-5.51C65.876,103.846,67,81.906,57.826,63.712
	c-2.492-4.95-8.422-2.49-8.382,2.755c0.103,12.973,0.987,24.471-5.628,36.186c2.855-0.364,3.035-0.733,5.889-1.103
	c-11.56-12.914-9.422-33.608-15.229-49.28c-2.067-5.587-8.935-5.012-8.935,1.446c0,22.843,0,45.682,0,68.524
	c3.637,0,5.491,0,9.128,0c-1.679-14.713-1.639-28.914-7.815-42.594C23.96,73.239,15.444,78.796,18.319,85.157L18.319,85.157z"/>
<path fill="#6ABC45" d="M79.331,97.747c0.097,9.412,1.563,18.831,7.127,26.659c4.034,5.683,11.717,0.237,7.635-5.512
	c-4.518-6.356-5.557-13.499-5.634-21.147C88.396,90.712,79.262,90.706,79.331,97.747L79.331,97.747z"/>
<path fill="#6ABC45" d="M184.242,72.485c3.039,8.375,9.463,27.792,9.677,36.701c3.638,0,13.487,11.125,17.13,11.125
	c-2.931-30.542-3.597-65.081,2.211-95.301c-3.507,0-7.015,0-10.524,0c5.085,24.36,4.969,58.149,22.725,77.188
	c2.506,2.686,11.072,1.729,12.939-1.106c13.83-21.047,9.869-47.936,9.497-71.276c-3.574,0.486-11.118,0.971-14.691,1.45
	c10.232,38.536,12.692,80.512,35.607,114.446c3.914,5.801,17.345,0.34,13.389-5.51c-22.323-33.077-24.527-74.262-34.502-111.838
	c-1.582-5.949-14.791-4.732-14.688,1.453c0.336,21.013,8.373,46.88-4.038,65.767c2.854-0.366,5.71-0.735,8.571-1.104
	c-16.127-17.283-18.782-50.276-23.389-72.368c-1.083-5.182-13.88-5.277-14.895,0c-6.175,32.127-7.359,68.028-4.277,100.131
	c0.656,6.867,16.35,7.145,16.173,0c-0.229-9.864-4.289-43.868-10.623-52.556C194.19,60.997,181.846,65.849,184.242,72.485
	L184.242,72.485z"/>
<path fill="#6ABC45" d="M280.965,79.357c-1.77-6.824-14.812-1.253-13.204,5.581c3.539,15.063,15.332,33.536,26.98,43.925
	c5.233,4.669,12.582-8.778,7.318-13.476C291.706,106.15,284.117,92.746,280.965,79.357c-3.509,0.968-9.697,4.618-13.204,5.581
	C268.187,86.59,281.39,81.001,280.965,79.357z"/>
<path fill="#6ABC45" d="M304.296,74.434c-2.272,39.141-22.065,76.675-17.534,116.327c0.797,6.909,15.29,6.989,14.497,0
	c-4.515-39.475,15.259-77.234,17.525-116.327C319.189,67.399,304.701,67.438,304.296,74.434L304.296,74.434z"/>
<path fill="#6ABC45" d="M103.194,99.482c-1.307,6.896-1.61,13.898-2.919,20.788c-0.943,4.992,4.125,9.348,7.589,4.818
	c8.229-10.768,13.089-27.194,26.271-33.027c-2.3-1.159-2.809-2.317-5.107-3.475c2.505,5.588,1.905,12.149,1.671,18.121
	c-0.239,6.23,1.014,11.816,4.068,17.239c3.456,6.143,10.815,0.17,7.372-5.937c-5.45-9.689,0.071-21.69-4.526-31.948
	c-1.121-2.5-3.082-3.876-5.997-2.585c-16,7.079-20.089,21.251-30.031,34.253c3.122,1.604,4.458,3.211,7.579,4.82
	c1.31-6.884,1.617-13.893,2.919-20.78C113.387,94.859,104.507,92.567,103.194,99.482L103.194,99.482z"/>
<path fill="#6ABC45" d="M147.796,60.625c-2.635,0-4.843,2.2-4.835,4.843c0,2.526,1.006,4.955,3.668,5.717
	c2.495,0.704,4.365-0.652,6.007-2.293c1.868-1.865,1.868-4.979,0-6.848C150.768,60.178,147.796,60.625,147.796,60.625z"/>
<path fill="#6ABC45" d="M147.035,97.747c0.097,9.412,1.555,18.831,7.12,26.659c4.036,5.683,11.724,0.237,7.642-5.512
	c-4.517-6.356-5.557-13.499-5.634-21.147C156.092,90.712,146.965,90.706,147.035,97.747L147.035,97.747z"/>
<path fill="#6ABC45" d="M80.345,60.625c-2.642,0-4.849,2.2-4.842,4.843c0,2.526,1.006,4.955,3.672,5.717
	c2.496,0.704,4.36-0.652,6.002-2.293c1.872-1.865,1.865-4.979,0-6.848C83.317,60.178,80.345,60.625,80.345,60.625z"/>
<g>
	<g>
		<path fill="#6ABC45" d="M316.633,55.914c18.655-4.865,37.53-4.244,56.107,0.639c-0.811-3.903-1.632-7.802-2.446-11.703
			c-13.774,11.902-31.549,19.301-41.957,34.817c-7.337,10.948-8.53,27.388-0.256,38.11c16.251,21.067,77.173,15.284,77.173,15.284
			c8.583,0.046,10.969-12.559,2.396-12.717c0,0-43.862,2.413-63.362-6.148c-13.121-5.759-9.789-21.964-2.416-31.145
			c9.346-11.654,24.54-17.843,35.723-27.511c4.306-3.734,3.333-10.188-2.458-11.711c-20.87-5.484-41.974-5.55-62.856-0.109
			C304.206,45.816,308.604,58.008,316.633,55.914L316.633,55.914z"/>
	</g>
</g>
</svg>
