<?xml version="1.0" encoding="utf-8"?>
<!-- Generator: Adobe Illustrator 16.0.0, SVG Export Plug-In . SVG Version: 6.00 Build 0)  -->
<!DOCTYPE svg PUBLIC "-//W3C//DTD SVG 1.1//EN" "http://www.w3.org/Graphics/SVG/1.1/DTD/svg11.dtd">
<svg version="1.1" xmlns="http://www.w3.org/2000/svg" xmlns:xlink="http://www.w3.org/1999/xlink" x="0px" y="0px" width="150px"
	 height="150px" viewBox="0 0 150 150" enable-background="new 0 0 150 150" xml:space="preserve">
<g id="Layer_2_1_">
	<rect x="-144.5" y="-80.5" fill="#FFFFFF" stroke="#000000" stroke-miterlimit="10" width="393" height="269"/>
</g>
<g id="Layer_1">
	<g id="Layer_2">
		<text transform="matrix(1 0 0 1 4.6968 14.0947)" fill="#28499E" font-family="'HelveticaNeue'" font-size="13">DESIGN</text>
		<text transform="matrix(1 0 0 1 52.835 14.0947)" font-family="'HelveticaNeue'" font-size="13"> CAN CHANGE </text>
		<text transform="matrix(1 0 0 1 5.1914 33.1055)" font-family="'HelveticaNeue'" font-size="23.999">THE </text>
		<text transform="matrix(1 0 0 1 57.6284 33.1055)" fill="#28499E" font-family="'HelveticaNeue'" font-size="23.999">WORLD</text>
		<text transform="matrix(1 0 0 1 51.8218 239.7256)" font-family="'HelveticaNeue'" font-size="2.9274">poster completed by Myra Menzer</text>
		<text transform="matrix(1 0 0 1 21.6758 225.25)" fill="#28499E" font-family="'HelveticaNeue'" font-size="13.1903">make a difference</text>
		<text transform="matrix(1 0 0 1 48.7651 212.7666)" font-family="'HelveticaNeue'" font-size="23.9982">YOU</text>
	</g>
	<g id="Layer_4" display="none">
		
			<image display="inline" overflow="visible" enable-background="new    " width="4027" height="4027" xlink:href="97408348994AC7CE.jpg"  transform="matrix(0.1729 0 0 0.1729 -273.7983 -300.3564)">
		</image>
	</g>
	<g id="Layer_3">
		<g>
			<circle fill="#28499E" cx="73.147" cy="115.614" r="62.013"/>
			<polygon fill="#FFFFFF" points="100.971,58.593 115.373,67.524 115.924,74.852 112.26,74.485 111.527,75.401 108.963,75.036 
				107.129,81.081 102.916,77.232 100.9,70.822 102.916,69.723 101.451,68.806 100.535,67.341 102.551,67.708 101.635,66.425 
				99.986,66.608 98.338,61.662 93.756,60.379 92.84,59.097 98.703,58.181 88.627,58.365 83.865,57.265 89.359,54.7 			"/>
			<polygon fill="#FFFFFF" points="30.554,68.99 33.668,69.54 27.439,75.219 27.439,77.232 20.844,83.829 34.218,73.386 
				37.882,77.052 38.614,90.059 35.683,99.034 37.333,107.462 39.53,108.561 40.263,114.424 43.927,120.652 41.729,114.239 
				41.362,110.76 44.111,115.706 47.774,122.667 47.225,124.314 51.255,126.697 55.469,128.529 57.484,128.162 60.599,130.544 
				63.712,131.095 67.193,134.758 70.857,137.141 71.773,134.941 72.873,136.773 73.789,140.072 70.125,144.833 71.224,145.934 
				69.758,147.216 73.422,152.895 75.621,156.191 79.832,158.758 78.369,174.329 80.383,175.979 83.865,175.428 91.008,169.199 
				90.277,167.551 93.023,167.918 98.154,162.971 97.604,161.688 104.016,158.023 106.215,151.43 109.328,148.498 109.695,145.383 
				107.129,144.285 98.52,142.086 97.238,138.605 93.023,137.506 87.346,132.926 83.131,133.477 78.369,132.376 74.155,135.309 
				72.14,134.025 69.392,134.758 68.292,129.264 62.979,127.98 65.544,122.667 62.063,122.667 57.301,125.415 55.469,117.902 
				59.133,113.323 63.53,114.79 63.346,112.591 67.193,112.958 71.224,118.637 71.041,111.676 77.635,106.18 80.199,100.316 
				84.23,99.584 83.314,97.568 88.627,95.555 87.711,97.752 93.391,95.188 90.092,94.088 90.277,91.157 84.596,92.807 
				88.627,89.509 94.49,89.874 96.688,89.143 93.939,93.904 97.604,93.723 100.352,94.639 97.604,90.975 97.971,86.761 
				93.939,82.729 92.291,77.232 88.627,79.432 88.811,76.136 85.328,73.386 82.582,73.569 82.215,77.6 80.75,77.968 82.031,81.447 
				78.918,82.182 77.27,88.043 76.535,82.182 68.659,77.783 77.635,69.355 78.918,71.372 81.482,70.822 79.285,67.89 83.131,67.158 
				83.498,64.227 79.102,66.242 79.102,64.043 75.986,62.944 72.689,65.326 67.376,62.944 65.361,62.944 63.163,65.143 
				59.866,63.495 62.247,62.944 57.301,60.929 55.652,60.197 49.973,62.028 40.813,60.562 			"/>
			<polygon fill="#FFFFFF" points="121.053,80.165 119.955,81.812 116.656,78.333 			"/>
			<polygon fill="#FFFFFF" points="136.807,114.059 133.328,108.744 128.381,110.76 127.648,115.155 123.434,120.835 
				124.168,124.864 122.885,129.078 126.184,134.941 130.58,131.827 130.58,140.986 138.824,127.614 			"/>
			<polygon fill="#FFFFFF" points="127.283,82.363 130.947,94.455 130.029,95.555 128.016,97.752 130.396,103.064 127.832,101.966 
				127.832,107.828 130.58,108.561 131.861,103.614 135.342,108.011 137.176,95.004 			"/>
			<polygon fill="#FFFFFF" points="125.633,88.227 126.184,90.975 124.9,91.891 125.816,94.455 127.832,94.088 128.197,95.371 
				129.664,94.639 			"/>
			<polygon fill="#FFFFFF" points="67.376,122.484 71.407,122.301 76.902,124.314 73.056,121.385 			"/>
			<polygon fill="#FFFFFF" points="73.239,125.781 74.706,125.781 75.986,126.516 73.422,126.881 			"/>
			<polygon fill="#FFFFFF" points="77.086,125.6 80.018,126.516 82.766,125.781 80.383,124.133 78.002,124.133 78.918,125.232 			
				"/>
			<polygon fill="#FFFFFF" points="84.23,126.331 86.062,126.331 85.328,125.232 84.047,125.049 			"/>
		</g>
	</g>
</g>
</svg>
