<?xml version="1.0" encoding="utf-8"?>
<!-- Generator: Adobe Illustrator 16.0.0, SVG Export Plug-In . SVG Version: 6.00 Build 0)  -->
<!DOCTYPE svg PUBLIC "-//W3C//DTD SVG 1.1//EN" "http://www.w3.org/Graphics/SVG/1.1/DTD/svg11.dtd">
<svg version="1.1" xmlns="http://www.w3.org/2000/svg" xmlns:xlink="http://www.w3.org/1999/xlink" x="0px" y="0px" width="1224px"
	 height="1584px" viewBox="0 0 1224 1584" enable-background="new 0 0 1224 1584" xml:space="preserve">
<g id="Layer_2_1_">
	<rect x="-38.5" y="-23.5" fill="#FFFFFF" stroke="#000000" stroke-miterlimit="10" width="1296" height="1645"/>
</g>
<g id="Layer_1">
	<g id="Layer_2">
		<text transform="matrix(1 0 0 1 173.5151 160.6465)" fill="#28499E" font-family="'HelveticaNeue'" font-size="81.1044">DESIGN</text>
		<text transform="matrix(1 0 0 1 473.8403 160.6465)" font-family="'HelveticaNeue'" font-size="81.1044"> CAN CHANGE </text>
		<text transform="matrix(1 0 0 1 182.8848 277.5371)" font-family="'HelveticaNeue'" font-size="147.565">THE </text>
		<text transform="matrix(1 0 0 1 505.3096 277.5371)" fill="#28499E" font-family="'HelveticaNeue'" font-size="147.565">WORLD</text>
		<text transform="matrix(1 0 0 1 473.645 1548)" font-family="'HelveticaNeue'" font-size="18">poster completed by Myra Menzer</text>
		<text transform="matrix(1 0 0 1 288.2783 1458.9961)" fill="#28499E" font-family="'HelveticaNeue'" font-size="81.1044">make a difference</text>
		<text transform="matrix(1 0 0 1 454.8506 1382.2363)" font-family="'HelveticaNeue'" font-size="147.56">YOU</text>
	</g>
	<g id="Layer_4" display="none">
		
			<image display="inline" overflow="visible" enable-background="new    " width="4027" height="4027" xlink:href="59CB78BA44BA4386.jpg"  transform="matrix(0.1729 0 0 0.1729 263.2017 416.6436)">
		</image>
	</g>
	<g id="Layer_3">
		<g>
			<circle fill="#28499E" cx="600.735" cy="784.866" r="381.303"/>
			<polygon fill="#FFFFFF" points="771.822,434.252 860.382,489.172 863.761,534.23 841.232,531.977 836.727,537.61 
				820.956,535.357 809.691,572.53 783.783,548.875 771.393,509.449 783.783,502.69 774.771,497.057 769.14,488.045 781.53,490.298 
				775.898,482.414 765.76,483.54 755.622,453.125 727.461,445.241 721.828,437.356 757.875,431.723 695.92,432.85 666.633,426.091 
				700.426,410.321 			"/>
			<polygon fill="#FFFFFF" points="338.836,498.184 357.985,501.562 319.686,536.483 319.686,548.875 279.134,589.426 
				361.364,525.218 383.894,547.748 388.399,627.726 370.376,682.921 380.515,734.739 394.031,741.498 398.537,777.543 
				421.066,815.844 407.549,776.417 405.296,755.014 422.193,785.428 444.722,828.233 441.343,838.371 466.124,853.016 
				492.033,864.279 504.424,862.027 523.573,876.67 542.723,880.051 564.125,902.579 586.654,917.223 592.287,903.705 
				599.045,914.971 604.678,935.246 582.148,964.533 588.907,971.292 579.896,979.179 602.425,1014.098 615.942,1034.373 
				641.851,1050.145 632.839,1145.893 645.229,1156.031 666.633,1152.65 710.562,1114.352 706.059,1104.213 722.955,1106.467 
				754.495,1076.053 751.116,1068.168 790.542,1045.639 804.06,1005.086 823.209,987.062 825.462,967.913 809.691,961.154 
				756.748,947.638 748.863,926.234 722.955,919.476 688.035,891.314 662.127,894.693 632.839,887.935 606.931,905.958 
				594.539,898.074 577.643,902.579 570.884,868.785 538.217,860.9 553.987,828.233 532.585,828.233 503.297,845.13 
				492.033,798.945 514.562,770.785 541.597,779.796 540.47,766.279 564.125,768.532 588.907,803.451 587.781,760.646 
				628.333,726.854 644.104,690.807 668.885,686.301 663.253,673.91 695.92,661.519 690.288,675.037 725.208,659.266 
				704.932,652.507 706.059,634.484 671.139,644.623 695.92,624.346 731.967,626.599 745.484,622.093 728.587,651.381 
				751.116,650.254 768.013,655.887 751.116,633.358 753.369,607.45 728.587,582.667 718.449,548.875 695.92,562.391 
				697.047,542.116 675.644,525.218 658.747,526.345 656.494,551.127 647.482,553.38 655.368,574.783 636.218,579.289 
				626.08,615.334 621.574,579.289 573.137,552.253 628.333,500.438 636.218,512.828 651.988,509.449 638.471,491.425 
				662.127,486.919 664.38,468.896 637.345,481.288 637.345,467.77 618.195,461.011 597.919,475.655 565.252,461.011 
				552.861,461.011 539.344,474.529 519.067,464.39 533.712,461.011 503.297,448.62 493.159,444.115 458.239,455.378 
				401.917,446.367 			"/>
			<polygon fill="#FFFFFF" points="895.302,566.896 888.543,577.036 868.267,555.633 			"/>
			<polygon fill="#FFFFFF" points="992.177,775.291 970.773,742.624 940.359,755.014 935.854,782.049 909.945,816.97 
				914.451,841.75 906.566,867.659 926.843,903.705 953.877,884.557 953.877,940.879 1004.567,858.648 			"/>
			<polygon fill="#FFFFFF" points="933.602,580.415 956.13,654.76 950.498,661.519 938.106,675.037 952.751,707.704 936.98,700.945 
				936.98,736.992 953.877,741.498 961.763,711.083 983.165,738.118 994.43,658.14 			"/>
			<polygon fill="#FFFFFF" points="923.463,616.461 926.843,633.358 918.957,638.99 924.59,654.76 936.98,652.507 939.233,660.393 
				948.245,655.887 			"/>
			<polygon fill="#FFFFFF" points="565.252,827.107 590.034,825.98 623.827,838.371 600.172,820.348 			"/>
			<polygon fill="#FFFFFF" points="601.298,847.383 610.31,847.383 618.195,851.889 602.425,854.142 			"/>
			<polygon fill="#FFFFFF" points="624.954,846.256 642.977,851.889 659.874,847.383 645.229,837.246 630.586,837.246 
				636.218,844.004 			"/>
			<polygon fill="#FFFFFF" points="668.885,850.763 680.149,850.763 675.644,844.004 667.759,842.877 			"/>
		</g>
	</g>
</g>
</svg>
